<svg width="39" height="39" viewBox="0 0 39 39" fill="none" xmlns="http://www.w3.org/2000/svg">
<g clip-path="url(#clip0_15_192)">
<path d="M37.8874 19.5709C37.8874 18.2705 37.782 16.963 37.557 15.6837H19.5128V23.0504H29.8459C29.4171 25.4263 28.0394 27.528 26.022 28.8636V33.6435H32.1867C35.8068 30.3116 37.8874 25.3911 37.8874 19.5709Z" fill="#3B7DED"/>
<path d="M19.5128 38.2618C24.6723 38.2618 29.0235 36.5677 32.1937 33.6435L26.029 28.8636C24.3139 30.0305 22.0996 30.6912 19.5199 30.6912C14.5291 30.6912 10.2974 27.3242 8.77911 22.7973H2.4176V27.7249C5.66514 34.1848 12.2797 38.2618 19.5128 38.2618V38.2618Z" fill="#2BA24C"/>
<path d="M8.77203 22.7973C7.97069 20.4214 7.97069 17.8487 8.77203 15.4728V10.5453H2.41755C-0.295758 15.9508 -0.295758 22.3193 2.41755 27.7248L8.77203 22.7973V22.7973Z" fill="#F0B501"/>
<path d="M19.5128 7.57184C22.2402 7.52966 24.8762 8.55594 26.8514 10.4398L32.3132 4.97803C28.8548 1.7305 24.2646 -0.0549452 19.5128 0.00128916C12.2797 0.00128916 5.66514 4.07828 2.4176 10.5452L8.77208 15.4728C10.2834 10.9389 14.522 7.57184 19.5128 7.57184V7.57184Z" fill="#E43E2B"/>
</g>
<defs>
<clipPath id="clip0_15_192">
<rect width="38.2604" height="38.2604" fill="white"/>
</clipPath>
</defs>
</svg>
