<svg width="156" height="212" viewBox="0 0 156 212" fill="none" xmlns="http://www.w3.org/2000/svg">
<g clip-path="url(#clip0_34_4)">
<path d="M21.6667 43.2653C33.6328 43.2653 43.3333 33.58 43.3333 21.6327C43.3333 9.68527 33.6328 0 21.6667 0C9.7005 0 0 9.68527 0 21.6327C0 33.58 9.7005 43.2653 21.6667 43.2653Z" fill="#CD191E"/>
<path d="M93.1666 0H62.8333C59.2435 0 56.3333 2.90558 56.3333 6.4898V36.7755C56.3333 40.3597 59.2435 43.2653 62.8333 43.2653H93.1666C96.7565 43.2653 99.6666 40.3597 99.6666 36.7755V6.4898C99.6666 2.90558 96.7565 0 93.1666 0Z" fill="#2F9E41"/>
<path d="M36.8333 112.49H6.5C2.91015 112.49 0 115.395 0 118.98V149.265C0 152.85 2.91015 155.755 6.5 155.755H36.8333C40.4232 155.755 43.3333 152.85 43.3333 149.265V118.98C43.3333 115.395 40.4232 112.49 36.8333 112.49Z" fill="#2F9E41"/>
<path d="M93.1666 112.49H62.8333C59.2435 112.49 56.3333 115.395 56.3333 118.98V149.265C56.3333 152.85 59.2435 155.755 62.8333 155.755H93.1666C96.7565 155.755 99.6666 152.85 99.6666 149.265V118.98C99.6666 115.395 96.7565 112.49 93.1666 112.49Z" fill="#2F9E41"/>
<path d="M93.1666 168.735H62.8333C59.2435 168.735 56.3333 171.64 56.3333 175.224V205.51C56.3333 209.094 59.2435 212 62.8333 212H93.1666C96.7565 212 99.6666 209.094 99.6666 205.51V175.224C99.6666 171.64 96.7565 168.735 93.1666 168.735Z" fill="#2F9E41"/>
<path d="M93.1666 56.2449H62.8333C59.2435 56.2449 56.3333 59.1505 56.3333 62.7347V93.0204C56.3333 96.6046 59.2435 99.5102 62.8333 99.5102H93.1666C96.7565 99.5102 99.6666 96.6046 99.6666 93.0204V62.7347C99.6666 59.1505 96.7565 56.2449 93.1666 56.2449Z" fill="#2F9E41"/>
<path d="M149.5 112.49H119.167C115.577 112.49 112.667 115.395 112.667 118.98V149.265C112.667 152.85 115.577 155.755 119.167 155.755H149.5C153.09 155.755 156 152.85 156 149.265V118.98C156 115.395 153.09 112.49 149.5 112.49Z" fill="#2F9E41"/>
<path d="M36.8333 168.735H6.5C2.91015 168.735 0 171.64 0 175.224V205.51C0 209.094 2.91015 212 6.5 212H36.8333C40.4232 212 43.3333 209.094 43.3333 205.51V175.224C43.3333 171.64 40.4232 168.735 36.8333 168.735Z" fill="#2F9E41"/>
<path d="M36.8333 56.2449H6.5C2.91015 56.2449 0 59.1505 0 62.7347V93.0204C0 96.6046 2.91015 99.5102 6.5 99.5102H36.8333C40.4232 99.5102 43.3333 96.6046 43.3333 93.0204V62.7347C43.3333 59.1505 40.4232 56.2449 36.8333 56.2449Z" fill="#2F9E41"/>
<path d="M149.5 0H119.167C115.577 0 112.667 2.90558 112.667 6.4898V36.7755C112.667 40.3597 115.577 43.2653 119.167 43.2653H149.5C153.09 43.2653 156 40.3597 156 36.7755V6.4898C156 2.90558 153.09 0 149.5 0Z" fill="#2F9E41"/>
</g>
<defs>
<clipPath id="clip0_34_4">
<rect width="156" height="212" fill="white"/>
</clipPath>
</defs>
</svg>
