<svg width="67" height="91" viewBox="0 0 67 91" fill="none" xmlns="http://www.w3.org/2000/svg">
<g clip-path="url(#clip0_1_5)">
<path d="M9.30556 18.5714C14.4449 18.5714 18.6111 14.4141 18.6111 9.28572C18.6111 4.15736 14.4449 0 9.30556 0C4.16624 0 0 4.15736 0 9.28572C0 14.4141 4.16624 18.5714 9.30556 18.5714Z" fill="#CD191E"/>
<path d="M40.0139 0H26.9861C25.4443 0 24.1945 1.24721 24.1945 2.78571V15.7857C24.1945 17.3242 25.4443 18.5714 26.9861 18.5714H40.0139C41.5557 18.5714 42.8056 17.3242 42.8056 15.7857V2.78571C42.8056 1.24721 41.5557 0 40.0139 0Z" fill="white"/>
<path d="M15.8194 48.2857H2.79167C1.24987 48.2857 0 49.5329 0 51.0714V64.0714C0 65.6099 1.24987 66.8571 2.79167 66.8571H15.8194C17.3612 66.8571 18.6111 65.6099 18.6111 64.0714V51.0714C18.6111 49.5329 17.3612 48.2857 15.8194 48.2857Z" fill="white"/>
<path d="M40.0139 48.2857H26.9861C25.4443 48.2857 24.1945 49.5329 24.1945 51.0714V64.0714C24.1945 65.6099 25.4443 66.8571 26.9861 66.8571H40.0139C41.5557 66.8571 42.8056 65.6099 42.8056 64.0714V51.0714C42.8056 49.5329 41.5557 48.2857 40.0139 48.2857Z" fill="white"/>
<path d="M40.0139 72.4286H26.9861C25.4443 72.4286 24.1945 73.6758 24.1945 75.2143V88.2143C24.1945 89.7528 25.4443 91 26.9861 91H40.0139C41.5557 91 42.8056 89.7528 42.8056 88.2143V75.2143C42.8056 73.6758 41.5557 72.4286 40.0139 72.4286Z" fill="white"/>
<path d="M40.0139 24.1429H26.9861C25.4443 24.1429 24.1945 25.3901 24.1945 26.9286V39.9286C24.1945 41.4671 25.4443 42.7143 26.9861 42.7143H40.0139C41.5557 42.7143 42.8056 41.4671 42.8056 39.9286V26.9286C42.8056 25.3901 41.5557 24.1429 40.0139 24.1429Z" fill="white"/>
<path d="M64.2084 48.2857H51.1806C49.6388 48.2857 48.3889 49.5329 48.3889 51.0714V64.0714C48.3889 65.6099 49.6388 66.8571 51.1806 66.8571H64.2084C65.7502 66.8571 67 65.6099 67 64.0714V51.0714C67 49.5329 65.7502 48.2857 64.2084 48.2857Z" fill="white"/>
<path d="M15.8194 72.4286H2.79167C1.24987 72.4286 0 73.6758 0 75.2143V88.2143C0 89.7528 1.24987 91 2.79167 91H15.8194C17.3612 91 18.6111 89.7528 18.6111 88.2143V75.2143C18.6111 73.6758 17.3612 72.4286 15.8194 72.4286Z" fill="white"/>
<path d="M15.8194 24.1429H2.79167C1.24987 24.1429 0 25.3901 0 26.9286V39.9286C0 41.4671 1.24987 42.7143 2.79167 42.7143H15.8194C17.3612 42.7143 18.6111 41.4671 18.6111 39.9286V26.9286C18.6111 25.3901 17.3612 24.1429 15.8194 24.1429Z" fill="white"/>
<path d="M64.2084 0H51.1806C49.6388 0 48.3889 1.24721 48.3889 2.78571V15.7857C48.3889 17.3242 49.6388 18.5714 51.1806 18.5714H64.2084C65.7502 18.5714 67 17.3242 67 15.7857V2.78571C67 1.24721 65.7502 0 64.2084 0Z" fill="white"/>
</g>
<defs>
<clipPath id="clip0_1_5">
<rect width="67" height="91" fill="white"/>
</clipPath>
</defs>
</svg>
